<svg width="32" height="32" viewBox="0 0 32 32" fill="none" xmlns="http://www.w3.org/2000/svg">
<rect width="32" height="32" rx="2" fill="white"/>
<path d="M7.61364 8.45455L11.3636 14.5057H11.4773L15.2273 8.45455H17.3011L12.7273 15.7273L17.3011 23H15.2273L11.4773 17.0625H11.3636L7.61364 23H5.53977L10.2273 15.7273L5.53977 8.45455H7.61364ZM18.8263 25.5V24.392L22.1502 21.4375C22.4817 21.1439 22.7586 20.8812 22.9812 20.6491C23.2037 20.4171 23.3718 20.1922 23.4854 19.9744C23.5991 19.7566 23.6559 19.5246 23.6559 19.2784C23.6559 18.8523 23.4925 18.5137 23.1658 18.2628C22.8391 18.0118 22.4343 17.8864 21.9513 17.8864C21.44 17.8864 21.0281 18.0237 20.7156 18.2983C20.4031 18.5682 20.2468 18.9233 20.2468 19.3636H18.7695C18.7695 18.554 19.0702 17.9029 19.6715 17.4105C20.2728 16.9134 21.0423 16.6648 21.9798 16.6648C22.6048 16.6648 23.154 16.7784 23.6275 17.0057C24.101 17.2282 24.4703 17.536 24.7354 17.929C25.0006 18.3172 25.1332 18.7576 25.1332 19.25C25.1332 19.6383 25.055 19.9981 24.8988 20.3295C24.7425 20.661 24.4987 21.0043 24.1673 21.3594C23.8358 21.7145 23.4097 22.1193 22.8888 22.5739L21.0423 24.1932V24.25H25.3888V25.5H18.8263Z" fill="black"/>
</svg>
