<svg width="32" height="32" viewBox="0 0 32 32" fill="none" xmlns="http://www.w3.org/2000/svg">
<rect width="32" height="32" rx="2" fill="white"/>
<path d="M7.61364 8.45455L11.3636 14.5057H11.4773L15.2273 8.45455H17.3011L12.7273 15.7273L17.3011 23H15.2273L11.4773 17.0625H11.3636L7.61364 23H5.53977L10.2273 15.7273L5.53977 8.45455H7.61364ZM18.8263 15.7273V14.6193L22.1502 11.6648C22.4817 11.3712 22.7586 11.1084 22.9812 10.8764C23.2037 10.6444 23.3718 10.4195 23.4854 10.2017C23.5991 9.9839 23.6559 9.75189 23.6559 9.50568C23.6559 9.07954 23.4925 8.741 23.1658 8.49006C22.8391 8.23911 22.4343 8.11364 21.9513 8.11364C21.44 8.11364 21.0281 8.25095 20.7156 8.52557C20.4031 8.79545 20.2468 9.15057 20.2468 9.59091H18.7695C18.7695 8.78125 19.0702 8.13021 19.6715 7.63778C20.2728 7.14062 21.0423 6.89205 21.9798 6.89205C22.6048 6.89205 23.154 7.00568 23.6275 7.23295C24.101 7.45549 24.4703 7.76326 24.7354 8.15625C25.0006 8.54451 25.1332 8.98485 25.1332 9.47727C25.1332 9.86553 25.055 10.2254 24.8988 10.5568C24.7425 10.8883 24.4987 11.2315 24.1673 11.5866C23.8358 11.9418 23.4097 12.3466 22.8888 12.8011L21.0423 14.4205V14.4773H25.3888V15.7273H18.8263Z" fill="black"/>
</svg>
